<?xml version="1.0" standalone="no"?>
<!DOCTYPE svg PUBLIC "-//W3C//DTD SVG 20010904//EN"
 "http://www.w3.org/TR/2001/REC-SVG-20010904/DTD/svg10.dtd">
<svg version="1.0" xmlns="http://www.w3.org/2000/svg"
 width="254.000000pt" height="254.000000pt" viewBox="0 0 254.000000 254.000000"
 preserveAspectRatio="xMidYMid meet">
<metadata>
Created by potrace 1.14, written by Peter Selinger 2001-2017
</metadata>
<g transform="translate(0.000000,254.000000) scale(0.100000,-0.100000)"
fill="#000000" stroke="none">
<path d="M2262 2448 c-6 -6 -12 -24 -12 -40 0 -27 -1 -27 -67 -30 l-68 -3 -3
-32 c-3 -26 -9 -33 -33 -38 -28 -6 -29 -8 -29 -66 0 -32 -1 -62 -2 -66 -2 -5
12 -9 30 -11 29 -3 32 -6 32 -38 0 -31 -2 -34 -30 -34 -17 0 -31 6 -32 13 0 6
-2 17 -3 22 -2 6 -3 16 -4 23 0 6 -14 12 -30 12 -25 0 -30 5 -33 26 -6 51 -67
58 -76 9 -5 -22 14 -35 51 -35 24 0 27 -4 27 -35 l0 -35 -55 0 c-50 0 -56 -3
-65 -24 -6 -17 -18 -26 -37 -28 -22 -2 -29 -9 -33 -33 -4 -25 -11 -31 -40 -35
-34 -5 -35 -7 -38 -52 -3 -43 -6 -48 -26 -48 -30 0 -48 -22 -44 -52 2 -17 -2
-24 -19 -26 -19 -3 -23 -10 -23 -38 0 -29 -3 -34 -23 -34 -31 0 -44 -16 -102
-125 -27 -49 -57 -106 -68 -125 -11 -19 -40 -75 -64 -124 l-44 -89 -22 24
c-12 13 -33 38 -45 54 -49 64 -173 182 -226 213 -30 19 -73 36 -94 39 -35 5
-42 2 -57 -20 -15 -23 -15 -28 -2 -54 8 -15 27 -41 41 -58 104 -117 198 -265
265 -415 78 -177 90 -190 169 -190 39 0 92 30 92 51 0 6 8 29 19 52 10 23 33
76 51 117 39 91 82 171 144 270 30 49 46 86 46 107 0 26 4 33 19 33 23 0 38
17 43 50 2 16 11 26 28 30 21 5 25 12 25 40 1 32 4 35 35 40 31 4 35 9 38 37
3 28 7 32 35 35 28 3 33 7 37 38 4 26 11 35 30 40 20 5 26 13 28 43 3 31 7 37
26 37 17 0 25 8 32 33 7 22 17 33 32 35 20 3 22 9 22 77 l0 74 38 3 c34 3 37
6 40 36 3 27 7 32 30 32 38 0 54 14 50 41 -2 20 -9 24 -38 24 -32 0 -35 -3
-38 -32 -3 -31 -6 -33 -43 -33 -44 0 -45 4 -33 94 6 41 9 46 33 46 14 0 43 3
64 6 34 6 37 9 37 40 0 33 1 34 41 34 l40 0 -3 38 c-3 31 -7 37 -28 40 -14 2
-31 -3 -38 -10z m-212 -382 c0 -42 -11 -56 -41 -56 -27 0 -29 3 -29 40 0 39 1
40 35 40 30 0 35 -3 35 -24z m-195 -126 c0 -20 -6 -26 -27 -28 -24 -3 -28 0
-28 21 0 30 9 39 35 35 14 -2 20 -10 20 -28z m0 -185 c0 -25 -4 -30 -25 -30
-21 0 -26 5 -28 33 -3 31 -2 33 25 30 24 -3 28 -8 28 -33z"/>
</g>
</svg>
